<?xml version="1.0" standalone="no"?>
<!DOCTYPE svg PUBLIC "-//W3C//DTD SVG 20010904//EN"
 "http://www.w3.org/TR/2001/REC-SVG-20010904/DTD/svg10.dtd">
<svg version="1.0" xmlns="http://www.w3.org/2000/svg"
 width="75.000000pt" height="75.000000pt" viewBox="0 0 75.000000 75.000000"
 preserveAspectRatio="xMidYMid meet">
<metadata>
Created by potrace 1.14, written by Peter Selinger 2001-2017
</metadata>
<g transform="translate(0.000000,75.000000) scale(0.100000,-0.100000)"
fill="#000000" stroke="none">
<path d="M125 697 c-8 -4 -15 -4 -15 0 0 4 -4 1 -10 -7 -6 -9 -5 -20 3 -29 9
-12 9 -13 0 -7 -16 9 -16 1 -3 -24 6 -10 7 -21 2 -24 -6 -3 -8 -111 -2 -111 1
0 3 -10 4 -22 1 -12 -1 -20 -6 -17 -11 7 -10 -7 2 -26 5 -9 5 -19 -2 -27 -7
-9 -7 -17 1 -26 6 -8 8 -17 4 -20 -9 -10 -10 -59 -1 -85 5 -15 4 -21 -2 -17
-13 8 -13 -1 0 -25 7 -13 7 -21 0 -25 -8 -5 -7 -12 2 -23 10 -12 10 -14 1 -8
-15 8 -17 -3 -3 -24 5 -8 5 -19 0 -25 -15 -18 -15 -22 -1 -38 10 -13 30 -17
82 -17 37 0 71 5 74 10 4 6 6 62 6 125 l0 115 110 0 c125 0 111 16 110 -130
-1 -123 -3 -120 85 -120 70 0 74 1 75 23 1 12 2 147 3 301 1 194 -2 284 -10
295 -9 12 -26 16 -68 15 -88 -3 -85 2 -83 -126 l1 -113 -111 -3 -111 -3 0 112
c0 61 -5 116 -10 121 -13 13 -108 16 -127 5z"/>
</g>
</svg>
